<?xml version="1.0" encoding="UTF-8"?>
<svg width="256" height="256" version="1.1" viewBox="0 0 67.733 67.733" xmlns="http://www.w3.org/2000/svg">
 <g transform="rotate(-11.3 16.402 28.511)" fill="none" stroke="#226" stroke-width="2.1167">
  <g stroke-linejoin="round">
   <path d="m6.1167 23.283h55.5a3.2792 3.2792 50.655 0 1 3.2155 3.9223l-6.8977 34.489a4.8792 4.8792 140.65 0 1-4.7845 3.9223h-38.567a4.8792 4.8792 39.345 0 1-4.7845-3.9223l-6.8977-34.489a3.2792 3.2792 129.35 0 1 3.2155-3.9223z"/>
   <path d="m16.933 23.274a16.933 16.933 0 0 1 8.5083-14.68 16.933 16.933 0 0 1 16.967 0.067685 16.933 16.933 0 0 1 8.3909 14.747"/>
   <rect x="15.875" y="30.692" width="2.1167" height="8.4667"/>
   <rect x="49.742" y="30.692" width="2.1167" height="8.4667"/>
  </g>
  <path d="m21.46 53.566s8.115 3.5844 12.407 3.5844c4.2917 0 12.993-3.5844 12.993-3.5844" stroke-linecap="round"/>
 </g>
</svg>
