<?xml version="1.0" encoding="UTF-8"?>
<svg version="1.1" viewBox="0 0 180 180" xmlns="http://www.w3.org/2000/svg">
 <circle fill="#f40" cx="89" cy="89" r="85.5"/>
 <path fill="#fff" d="m146 89c0-6.9-5.6-12.5-12.5-12.5-3.4 0-6.4 1.3-8.6 3.5-8.5-6.1-20.3-10.1-33.3-10.6l5.7-26.7 18.5 3.9c0.2 4.7 4.1 8.5 8.9 8.5 4.9 0 8.9-4 8.9-8.9s-4-8.9-8.9-8.9c-3.5 0-6.5 2-7.9 5l-20.7-4.4c-0.6-0.1-1.2 0-1.7 0.3s-0.8 0.8-1 1.4l-6.3 29.8c-13.3 0.4-25.2 4.3-33.8 10.6-2.2-2.1-5.3-3.5-8.6-3.5-6.9 0-12.5 5.6-12.5 12.5 0 5.1 3 9.4 7.4 11.4-0.2 1.2-0.3 2.5-0.3 3.8 0 19.2 22.3 34.7 49.9 34.7s49.9-15.5 49.9-34.7c0-1.3-0.1-2.5-0.3-3.7 4.1-2 7.2-6.4 7.2-11.5zm-85.5 8.9c0-4.9 4-8.9 8.9-8.9s8.9 4 8.9 8.9-4 8.9-8.9 8.9-8.9-4-8.9-8.9zm49.7 23.5c-6.1 6.1-17.7 6.5-21.1 6.5s-15.1-0.5-21.1-6.5c-0.9-0.9-0.9-2.4 0-3.3s2.4-0.9 3.3 0c3.8 3.8 12 5.2 17.9 5.2s14-1.4 17.9-5.2c0.9-0.9 2.4-0.9 3.3 0 0.7 1 0.7 2.4-0.2 3.3zm-1.6-14.6c-4.9 0-8.9-4-8.9-8.9s4-8.9 8.9-8.9 8.9 4 8.9 8.9-4 8.9-8.9 8.9z"/>
</svg>
