<?xml version="1.0" encoding="UTF-8"?>
<svg width="1024" height="256" version="1.1" viewBox="0 0 270 65" xmlns="http://www.w3.org/2000/svg">
 <g stroke="#fff" stroke-linecap="round" stroke-linejoin="round">
  <g fill="none" stroke-width="2">
   <path d="m5.432 33.535q0-6.6787 3.7207-10.399 3.7207-3.7207 10.362-3.7207 6.8089 0 10.492 3.6649 3.6835 3.6463 3.6835 10.232 0 4.7811-1.6185 7.8507-1.5999 3.051-4.6509 4.7625-3.0324 1.6929-7.5716 1.6929-4.6137 0-7.646-1.4697-3.0138-1.4697-4.8927-4.6509t-1.879-7.9623zm8.4274 0.03721q0 4.13 1.5255 5.9345 1.5441 1.8045 4.1858 1.8045 2.7161 0 4.2044-1.7673 1.4883-1.7673 1.4883-6.3438 0-3.8509-1.5627-5.6183-1.5441-1.7859-4.2044-1.7859-2.5487 0-4.0928 1.8045-1.5441 1.8045-1.5441 5.9717z"/>
   <path d="m37.235 54.668v-27.273h7.0879v2.9208q1.4697-1.8417 2.6975-2.4929 1.6557-0.87436 3.6649-0.87436 3.9625 0 6.1206 3.0324 2.1766 3.0324 2.1766 7.4972 0 4.9299-2.3626 7.5344-2.3626 2.5859-5.9717 2.5859-1.7487 0-3.1998-0.59531-1.4325-0.59531-2.5673-1.7673v9.432zm7.5902-17.338q0 2.344 0.98599 3.4789 0.98599 1.1348 2.4929 1.1348 1.3208 0 2.2138-1.079 0.89297-1.0976 0.89297-3.7021 0-2.3999-0.93018-3.5161-0.93018-1.1348-2.2696-1.1348-1.4511 0-2.4185 1.1348-0.96738 1.1348-0.96738 3.6835z"/>
   <path d="m84.581 39.153h-15.18q0.20464 1.8231 0.98599 2.7161 1.0976 1.2836 2.8649 1.2836 1.1162 0 2.1208-0.5581 0.61392-0.35347 1.3208-1.2464l7.46 0.68833q-1.7115 2.9766-4.13 4.2788-2.4185 1.2836-6.9391 1.2836-3.9253 0-6.1764-1.0976-2.251-1.1162-3.7393-3.5161-1.4697-2.4185-1.4697-5.6741 0-4.6323 2.958-7.4972 2.9766-2.8649 8.2042-2.8649 4.2416 0 6.6973 1.2836t3.7393 3.7207q1.2836 2.4371 1.2836 6.3438zm-7.7019-3.6277q-0.22324-2.1952-1.1906-3.144-0.94878-0.94878-2.5115-0.94878-1.8045 0-2.8835 1.4325-0.68833 0.89297-0.87436 2.6603z"/>
   <path d="m87.568 27.396h7.0507v3.2184q1.5813-1.972 3.1998-2.8091 1.6185-0.85576 3.944-0.85576 3.144 0 4.9113 1.879 1.7859 1.8604 1.7859 5.7671v12.557h-7.6088v-10.864q0-1.8604-0.68833-2.6231-0.68834-0.78135-1.9348-0.78135-1.3767 0-2.2324 1.0418-0.85576 1.0418-0.85576 3.7393v9.4878h-7.5716z"/>
  </g>
  <g fill="#fff" stroke-width="1">
   <path d="m113.77 19.88h22.585v5.8229h-14.139v4.3346h13.115v5.5624h-13.115v5.3764h14.548v6.1764h-22.994z"/>
   <path d="m139.8 27.396h7.0879v3.237q1.0232-2.1022 2.1022-2.8835 1.0976-0.79995 2.6975-0.79995 1.6743 0 3.6649 1.0418l-2.344 5.395q-1.3394-0.55811-2.1208-0.55811-1.4883 0-2.3068 1.2278-1.172 1.7301-1.172 6.474v6.6229h-7.6088z"/>
   <path d="m157.8 27.396h7.0879v3.237q1.0232-2.1022 2.1022-2.8835 1.0976-0.79995 2.6975-0.79995 1.6743 0 3.6649 1.0418l-2.344 5.395q-1.3394-0.55811-2.1208-0.55811-1.4883 0-2.3068 1.2278-1.172 1.7301-1.172 6.474v6.6229h-7.6088z"/>
   <path d="m181.69 33.795-7.2368-0.76274q0.40928-1.8976 1.172-2.9766 0.78135-1.0976 2.2324-1.8976 1.0418-0.57671 2.8649-0.89297 1.8232-0.31626 3.944-0.31626 3.4044 0 5.4694 0.39067 2.065 0.37207 3.4416 1.5813 0.96738 0.83716 1.5255 2.3812 0.55811 1.5255 0.55811 2.9208v8.725q0 1.3953 0.16743 2.1952 0.18603 0.78135 0.78134 2.0092h-7.1065q-0.42788-0.76274-0.5581-1.1534-0.13023-0.40928-0.26045-1.265-1.4883 1.4325-2.958 2.0464-2.0092 0.81855-4.6695 0.81855-3.5347 0-5.3764-1.6371-1.8231-1.6371-1.8231-4.037 0-2.251 1.3208-3.7021 1.3208-1.4511 4.8741-2.158 4.2602-0.85576 5.5252-1.1906 1.265-0.35347 2.6789-0.91157 0-1.3953-0.57671-1.9534-0.57671-0.55811-2.0278-0.55811-1.8604 0-2.7905 0.59531-0.72554 0.46509-1.172 1.7487zm6.567 3.9812q-1.5627 0.55811-3.2556 0.98599-2.3068 0.61392-2.9208 1.2092-0.63252 0.61392-0.63252 1.3953 0 0.89297 0.61392 1.4697 0.63252 0.55811 1.8417 0.55811 1.265 0 2.344-0.61392 1.0976-0.61392 1.5441-1.4883 0.46509-0.89297 0.46509-2.3068z"/>
   <path d="m199.22 27.396h7.0507v3.2184q1.5813-1.972 3.1998-2.8091 1.6185-0.85576 3.9439-0.85576 3.144 0 4.9113 1.879 1.7859 1.8604 1.7859 5.7671v12.557h-7.6088v-10.864q0-1.8604-0.68833-2.6231-0.68833-0.78135-1.9348-0.78135-1.3767 0-2.2324 1.0418-0.85577 1.0418-0.85577 3.7393v9.4878h-7.5716z"/>
   <path d="m244.41 19.88v27.273h-7.0879v-2.9208q-1.4883 1.8604-2.7161 2.5115-1.6371 0.85576-3.6463 0.85576-4.037 0-6.1764-3.0696-2.1208-3.0696-2.1208-7.46 0-4.9113 2.344-7.5158 2.3626-2.6045 5.9903-2.6045 1.7673 0 3.1998 0.59531 1.4511 0.59531 2.5673 1.7859v-9.4506zm-7.5902 17.338q0-2.3254-0.98598-3.4603-0.98599-1.1534-2.4929-1.1534-1.3208 0-2.2138 1.0976-0.89297 1.0976-0.89297 3.6835 0 2.4185 0.91157 3.5533 0.93018 1.1162 2.2882 1.1162 1.4511 0 2.4185-1.1348 0.96738-1.1348 0.96738-3.7021z"/>
   <path d="m246.1 41.683 7.5158-0.70693q0.46508 1.3395 1.3022 1.9162t2.2324 0.57671q1.5255 0 2.3626-0.65112 0.65112-0.48369 0.65112-1.2092 0-0.81855-0.85576-1.265-0.61391-0.31626-3.2556-0.78135-3.944-0.68833-5.488-1.265-1.5255-0.59531-2.5859-1.9906-1.0418-1.3953-1.0418-3.1812 0-1.9534 1.1348-3.3672 1.1348-1.4139 3.1254-2.1022 1.9906-0.70693 5.3392-0.70693 3.5347 0 5.209 0.5395 1.6929 0.5395 2.8091 1.6743 1.1348 1.1348 1.879 3.0696l-7.181 0.70693q-0.27905-0.94878-0.93018-1.3953-0.89296-0.59531-2.158-0.59531-1.2836 0-1.879 0.46509-0.57671 0.44648-0.57671 1.0976 0 0.72554 0.74414 1.0976 0.74414 0.37207 3.237 0.66973 3.7765 0.42788 5.6183 1.1906 1.8417 0.76274 2.8091 2.1766 0.98598 1.4139 0.98598 3.1068 0 1.7115-1.0418 3.33-1.0232 1.6185-3.2556 2.5859-2.2138 0.94878-6.0461 0.94878-5.4136 0-7.7205-1.5441-2.2882-1.5441-2.9394-4.3904z"/>
  </g>
 </g>
</svg>
